<svg version="1.1"
	 id="svg2913" inkscape:export-filename="D:\Wikip√©dia\Guatemala carte.svg" inkscape:export-xdpi="72.000000" inkscape:export-ydpi="72.000000" inkscape:output_extension="org.inkscape.output.svg.inkscape" inkscape:version="0.45.1" sodipodi:docbase="G:\Inkscape" sodipodi:docname="Antarctica blank.svg" sodipodi:version="0.32" xmlns:cc="http://web.resource.org/cc/" xmlns:dc="http://purl.org/dc/elements/1.1/" xmlns:inkscape="http://www.inkscape.org/namespaces/inkscape" xmlns:rdf="http://www.w3.org/1999/02/22-rdf-syntax-ns#" xmlns:sodipodi="http://sodipodi.sourceforge.net/DTD/sodipodi-0.dtd" xmlns:svg="http://www.w3.org/2000/svg"
	 xmlns="http://www.w3.org/2000/svg" xmlns:xlink="http://www.w3.org/1999/xlink" x="0px" y="0px" viewBox="0 0 668.9 546"
	 style="enable-background:new 0 0 668.9 546;" xml:space="preserve">
<style type="text/css">
	.st0{fill:#CACF85;}
</style>

<path id="Antarctique" class="st0" d="M34.6,168c-0.3,0-1.9-1.1-3.6-2.5l-3-2.5h2.2h2.2l1.4,2.6C34.6,166.9,34.9,168,34.6,168z
	 M429.2,545.5h-5.1l-2.7-1.6c-1.5-0.9-4.3-2.7-6.3-4.1l-3.6-2.5l-15.4,0.3l-15.4,0.3l-2.5-2.2c-1.4-1.2-4.9-3.4-7.8-4.8l-5.3-2.6
	l0.6-1.9c0.3-1.1,0.5-4.1,0.3-6.8l-0.2-4.9l1.3-2.4l1.3-2.4h1.9h1.9l4-8.4l4-8.4l0.3-3.7l0.3-3.7l3-3.2l3-3.2l-1.7-3.5
	c-0.9-1.9-3-7.7-4.6-12.7l-3-9.2l-6.6-8.4l-6.6-8.4l2.7-4.3c1.5-2.4,3.6-5.1,4.7-6l2-1.6l-0.9-5.1l-0.9-5.1l-2.4-3.9
	c-1.3-2.2-2.4-4.8-2.4-5.9c0-1.1-1.1-4-2.5-6.6c-1.4-2.6-5-7.2-8-10.3c-3.1-3.1-8.5-8.8-12.1-12.7l-6.6-6.9l-10.1-5.1l-10.1-5.1
	l-6.1-6.3c-3.3-3.5-7.9-7.7-10.2-9.3l-4.2-3.1h-3.7h-3.7L289,342l-0.8,2.2l2.4,1.4c1.3,0.7,4.1,3,6.1,4.9l3.7,3.6l-1.6,1.9l-1.6,1.9
	l1.6,3.9l1.6,3.9l-0.7,0.7l-0.7,0.7l-2.8-1.5l-2.8-1.5l-1.8,1.5l-1.8,1.5v4.3v4.3h-1c-0.5,0-1.7-1.2-2.6-2.6l-1.7-2.6l-3.5,0.4
	l-3.5,0.4l-3,5.8l-3,5.8l0.8,5l0.8,5l-2.3-1c-1.3-0.5-3.4-1-4.9-1.1l-2.6-0.1l-0.4,3.5l-0.4,3.5h-2.2h-2.2l-3.4,3.6l-3.4,3.6
	l0.8,4.7l0.8,4.7l1.8,1.5l1.8,1.5v3.5v3.5l-1.9,0.7l-1.9,0.7v2v2l3.2,1.2l3.2,1.2v1.8c0,1-0.4,2.8-0.8,3.9l-0.8,2h-4.1h-4.1l-4-4.2
	c-2.2-2.3-4.6-5.5-5.5-7.1l-1.5-2.9l-4.2,0.3l-4.4-0.3l-1.4-0.9l-1.4-0.9l-3.4,2.6l-3.4,2.6v1.8v1.8l-2.9,3l-2.9,3l-5.1-0.2
	c-2.8-0.1-7-0.9-9.3-1.7s-6.1-2.1-8.4-2.9l-4.2-1.5l-3.9,0.1c-2.1,0.1-5.2-0.1-6.8-0.5l-2.9-0.6v-2.7v-2.7l-4.5-5.3
	c-2.5-2.9-5.2-6-6.1-6.9c-0.9-0.9-3-2.9-4.6-4.5c-1.7-1.6-7.1-8.1-12.1-14.4c-5-6.3-9.8-12-10.8-12.5l-1.7-1v-2.7v-2.9l-1.6-2.2
	l-1.6-2.2l-2.5-0.5c-1.4-0.3-2.8-0.5-3.1-0.6c-0.3-0.1,0.8-1.5,2.4-3.2l2.9-3.1l-0.5-2.4l-0.5-2.4l-3.6,0.3l-3.6,0.3l0.4-2.2
	l0.4-2.2l4.8-0.4l4.8-0.4v-5.6v-5.6l-3.9-7.4l-3.9-7.4l0.8-4.3l0.8-4.3h-1.2c-0.6,0-1.9,0.7-2.8,1.6l-1.6,1.6l-1.3-2.2l-1.3-2.2
	h-2.5h-2.5v1.8v1.8l-3.6,2.6L108,331l-1.6-4.4l-1.6-4.4H103h-1.8l-0.8,2.6c-0.5,1.4-0.7,4.5-0.5,6.7l0.4,4.2l-1,1.6
	c-0.5-0.6-1.4,1.6-1.9,1.6h-0.7l-0.2-6.7c-0.1-3.7-0.2-9-0.2-11.8s0-7.1-0.1-9.6s-0.3-8.9-0.5-14.3l-0.4-9.8l-2.1-2.3l-2.1-2.3
	l2.5-3l2.5-3v-2.4v-2.4l3.8-11.7l5.8-8.2l-0.7-1.7c-0.4-0.9-2.4-2.7-4.5-3.9l-3.8-2.2v-2v-1.8l3.2-0.8l3.2-0.8V237
	c0-0.7,1.2-2.3,2.6-3.6l2.6-2.4l-0.6-17.4l-0.5-17.3l-1.4-2.6c-0.8-1.4-3.2-4.1-5.4-5.9l-4-3.3H91l-3.9-1l-1.3-1.3l-1.3-1.3
	l-9.7-1.1c-5.4-0.6-10.4-1.5-11.2-2l-1.4-0.9v-3.5v-3.5l-1.5-1.5l-1.5-1.5h-2.9h-2.9l-0.7-1.2c-0.4-0.6-3.4-2.5-6.7-4l-6-2.9
	l-2.3,1.5l-2.3,1.5l-0.8-1.3l-0.8-1.3l1.4-1.7l1.4-1.7l-3.2-2.1l-3.2-2.1l2-1.5c0-0.8-1.2-2.8-2.7-4.3c-1.5-1.6-2.8-3.6-2.9-4.6
	s-1-3.6-2-5.9l-1.7-4.1l-2.6-0.8l-2.6-0.8l0.6-2.5l3.1-2l-1.8-8c-1-4.4,1.8-8.4,1.3-9.4l-0.9-1.9l2.4-9.3c0-5.1,0-9.3,0.2-9.3
	c0.1,0,1.6,2.5,3.3,5.5l3.1,5.5l-1.2,2.7l-1.2,2.7l-0.4,6.1c1.1,3.3-0.9,5.1-1.9,7.9v2.3l3.7,3.2c2,1.8,2.2,3.5,3.6,4.5l2.4,1.8
	l-1.9,3.5l-1.9,3.5l3.2,2.8l1.2,2.8l2.8,5.7l2.8,5.7l4.5,2.4l4.5,2.4l4.9,0.2l4.9,0.2l1.1-2.6l1.1-2.6l8.1,0.2l8.1,0.2l4.1,2l4.1,2
	l4.6,1.8c3.3,0.5,7.6,1.5,9.5,2.3l3.5,1.4l0.6,2.3l0.6,2.3l3.2-0.8l3.2-0.8l1.4,2.6l1.4,2.6l-0.8,2l-0.8,2h1.2h1.2l1.5-3.2l1.5-3.2
	h1.3h1.3v3.1v3.1l2,0.8l2,0.8l1.4-0.8l1.4-0.8l1.4,1.9c0.8,1,2.7,2.6,4.3,3.4l2.9,1.5v3.8v3.8l2.1,3.2l2.1,3.2h2.3h2.3l0.8,4
	c0.4,2.2,0.8,7.6,0.8,12v8l2.8,1.8l2.8,1.8l-2.3,5.9l-2.3,5.9l-4.9,1.9c-2.7,1.1-5.2,2.5-5.7,3.2l-0.8,1.2l2.2,2.2l2.2,2.2l4.6-0.8
	c2.5-0.4,6.8-1.4,9.5-2.1l4.9-1.4l1.2-3.1l1.2-3.1h1.9h1.9l0.7,2.3l0.7,2.3l-2.3,4.4c-1.3,2.4-3.3,6-4.6,7.9l-2.3,3.5l0.8,1.3
	c0.5,0.7,1.6,1.3,2.4,1.3h1.6l3.7-3.8l3.7-3.8h2.3h2.3v2.9v2.9l-4.5,3.6l-4.5,3.6v1.9v1.9h2.6h2.6l6.7-3.4c3.7-1.9,7-3.6,7.3-3.9
	c0.3-0.2-0.1-1.1-1-2c-0.8-0.8-1.5-2.5-1.5-3.7v-2.3l1.8-1.5l1.8-1.5l2.1,0.8l2.1,0.8v3.7v3.7h1.9h1.9l1.4-2.6l1.4-2.6h6.9h6.9
	l3.5,1.3l3.5,1.3l1.4-1.4l1.4-1.4l-4.3-3.6l-4.3-3.6l0.5-2.3l0.5-2.3l3.5-1.2l3.5-1.2l5.1,1.7l5.1,1.7l5.5-1.4l5.5-1.4l2.1,1.9
	l2.1,1.9h2.2h2.2l0.7-1.7l0.7-1.7l-4.5-6.7l-4.5-6.7l-0.8-4.4l-0.8-4.4l0.8-3.2l0.8-3.2h4.5h4.5v-3.5c0-1.9-0.6-5.5-1.3-7.9
	l-1.3-4.4l1.8-6.8l1.8-6.8l2.7-3.4l2.7-3.4V171v-4.4L254,162l-2.7-4.6h-1.2c-0.7,0-4.1,0.9-7.7,2.1l-6.5,2.1l-2.5-2.5l-2.5-2.5
	l-0.1-4.4l-0.1-4.4l2-8.3c1.1-4.6,2.6-10.1,3.3-12.2c0.7-2.1,2-6.1,2.9-9l1.6-5.1l3.9-5.4l3.9-5.4l4.3-2.5c2.4-1.4,4.5-3.3,4.8-4.2
	s0.9-3.8,1.3-6.4l0.8-4.8l2-1.6c1.1-0.9,3.7-3.2,5.7-5.3l3.7-3.7v-1.8v-1.8h-2.3c-1.3,0-3,0.6-3.7,1.4l-1.4,1.4l-1.4-0.9l-1.4-0.9
	v-3.1v-3.1l3.9-2l3.9-2v-2.2v-2.2l3.8-5.6c2.1-3.1,3.8-6.3,3.8-7c0-0.8-0.5-2.2-1.1-3.1l-1.1-1.7l2.7-5c1.5-2.7,3.1-5,3.7-5
	c0.5,0,1.8,1.8,3,3.9l2,3.9l2.1-0.4l2.1-0.4l0.8-3.8c0.4-2.1,1.5-5.1,2.3-6.7c0.9-1.6,2-2.9,2.6-2.9h1.1l-0.6,3.2l-0.6,3.2l1.8,0.7
	l1.8,0.7l6.2-1.2l6.2-1.2l3.4,1.8c1.9,1,4.7,1.8,6.3,1.8h2.8l1.4-2.6l1.4-2.6l5.4-2.7l5.4-2.7l8.4-0.6l8.4-0.6l1.9-1.6l1.9-1.6
	l5.6,0.2l5.6,0.2l3.2,4.1l3.2,4.1h1.7c0.9,0,2.3-0.8,3.2-1.8l1.5-1.8l3.5-0.7l3.5-0.7l3.7,1.9l3.7,1.9l6.8-0.8l6.8-0.8l4.4,4.3
	c2.4,2.4,6.6,6,9.4,8.1l5.1,3.7l11,1.8c6.1,1,12.7,1.8,14.7,1.7l3.7-0.1l3.9,2l3.9,2l7.2-0.5l7.2-0.5l4.1-3.1l4.1-3.1l0.8,0.8
	l0.8,0.8l0.2,10l0.2,10l3.2,4.3l3.2,4.3l3.7-0.7l3.7-0.7l3.9-3.3l3.9-3.3l2.7,0.7c1.5,0.4,5.9,1.1,9.8,1.5l7.1,0.9l1.6,1.2
	c0.9,0.7,3.8,1.8,6.4,2.5c2.7,0.7,6.6,1.4,8.7,1.6l3.9,0.3l0.4,3.1c0.2,1.7,1,3.8,1.8,4.7l1.3,1.6h2.9h2.9l0.7-2.7l0.7-2.7l1.5,0.9
	l1.5,0.9l-0.6,2.2l-0.6,2.2l1.2,2.1l1.2,2.1h1.8h1.8l2-3.8c1.1-2.1,2.5-3.8,3.1-3.8s3,0.7,5.4,1.5l4.4,1.5l3.7,3.3
	c2,1.8,4.5,5,5.6,7l1.9,3.7L596,100l-0.9,6.3h-3.2h-3.2l0.9,3.5c0.5,1.9-1,3.3-0.9,6.1l-0.3,8.6l2.5,3.1c0.8,1.4,3.4,3.7,3.9,6.8
	l0.9,5.8l1.9,3l1.9,3l-0.4,16.3c2,7.6,7.9,11.9,8.4,12.6l0.8,1.3l-2.1,1.7l-2.1,1.7l-9.8,0.2c-5.4,0.1-11.8,0.4-14.3,0.6l-4.5,0.4
	l-0.5,2.5l-0.5,2.5l-3.1,2.4l-3.1,2.4v3.1v3.1h-6.4h-6.4v1.2c0,0.7,1.2,1.9,2.7,2.7l2.7,1.5l12.9,0.3l12.9,0.3l2.4,2.9l2.4,2.9v2.4
	v2.4h1.2c0.7,0,3.9,2.3,7.2,5.1l5.9,5.1h3.2h3.2l3.8,1.9l3.8,1.9l2.5,4.9c1.4,2.7,3.3,5.6,4.4,6.4c1,0.9,2.4,1.5,3,1.4
	s1.9-0.1,2.8,0l1.7,0.2l-0.8,3.8l-0.8,3.8l2.6,3.3l2.6,3.3l-0.7,1.9l-0.7,1.9l3.4,7.2l3.4,7.2l-0.8,4.8l-0.8,4.8l2.1,6.2l2.1,6.2
	l-0.7,3.9l-0.7,3.9l1.1,5.7l1.1,5.7l-1.6,2.3l-1.6,2.3l0.6,6.7c0.3,3.7,1.1,7.7,1.8,8.9l1.2,2.2h1.8c1,0,2.2,0.6,2.7,1.4l0.9,1.4
	l-3.6,2.8l-3.6,2.8l1.5,2.7l1.5,2.7v4.4v4.4l-11.4,4.2c-4.6,6.4-8.2,15.7-8.6,15.2c-4.6-6,0,3.9-1.2,5l-2,3l1.3,2.4
	c0.7,1.3,1.3,3.5,1.3,4.9v2.6l2.1,2.1l2.1,2.1l0.6,6l0.6,6l-1.8,1.5c-1,0.8-4.1,2-6.9,2.6l-5,1l-0.5,2.5c-0.3,1.4-1.1,3.2-1.8,4.1
	l-1.3,1.6h-2.8h-2.8l-5.5,4.7l-5.5,4.7l-2.4,5.5l-2.4,5.5l-0.9,8.1l-0.9,8.1l-1.8,2.8l-1.8,2.8l0.3,2.8l0.3,2.8l-3.2,0.9
	c-1.8,0.5-5.4,1-8,1.1l-4.8,0.1l-1.9,3.6l-1.9,3.6l1.9,3.6c1,2,1.9,4.5,1.9,5.7v2.2l-4.8,6.3c-2.7,3.5-6.8,8.5-9.2,11.1l-4.4,4.8
	h-2.9h-2.9l-0.8,1.3c-0.4,0.7-4.1,2.7-8.1,4.5s-10,4.7-13.3,6.4s-6.7,3.1-7.6,3.1s-2.6,0.8-3.7,1.7c-1.1,0.9-4.3,2.4-7.2,3.2
	l-5.1,1.5l-1.5-2l-1.5-2l-7.5,0.3l-7.5,0.3l-2.1-0.9l-2.1-0.9l-5.5,2.8l-5.5,2.8l-3-1.6l-3-1.6l-4,1.6l-4,1.6l-1.8,2.5l-1.8,2.5
	l-2.6-1.4c-1.4-0.8-3.7-1.4-5.1-1.4s-4.2,0.9-6.2,1.9l-3.7,1.9L429.2,545.5z M81.9,215.9c-1.1,0.4-2.1,0.6-2.2,0.3
	c-0.1-0.3-0.3-2.6-0.4-5.1l-0.3-4.7l-2.2-2.2l-2.2-2.2l0.4-3.4l0.4-3.4l-4.2-0.4l-4.2-0.4v-2.5v-2.5h-1.1c-0.6,0-1.9,0.9-2.8,2.1
	l-1.7,2.1l-5.1-0.7l-5.1-0.7l-2-2l-2-2l1.5-1.8l1.5-1.8l12.5,0.5l12.5,0.5l7.3,2l7.3,2l4,3.9l4,3.9v3.1c0,1.7-0.6,4.2-1.3,5.6
	s-1.9,2.5-2.6,2.5h-1.2l0.4-3.5l0.4-3.5l-3.6-0.4l-3.6-0.4l-1.7,1.4l-1.7,1.4l-0.6,3.3l-0.6,3.3l1.8,0.7l1.8,0.7v1.8
	c0,1-0.2,1.8-0.5,1.8S83.1,215.5,81.9,215.9z M225.2,207.9H223l-2-7.2l-4.5-7.7l-6.3-6.2l-6.3-6.2l-1.4-3.9l-1.4-3.9l3.1-2l3.1-2
	l3,0.4l3,0.4l0.4,2.9l0.4,2.9h2.4h2.4l0.8,1.4c0.5,0.7,2.2,1.9,3.9,2.5l3.1,1.2l2.1,4.4l2.1,4.4l-0.4,9.6l-2.9,9.1L225.2,207.9
	L225.2,207.9z M31.9,90.9h-1.7l0.9-0.9l0.9-0.9l0.9,0.9l0.9,0.9H31.9z M359.8,449.4l-2.5,0.1l0.8-0.8l0.8-0.8l1.7,0.7l1.7,0.7
	L359.8,449.4z M23.6,84.5c-0.4,0-0.6-0.3-0.6-0.6s0.3-0.6,0.6-0.6s0.6,0.3,0.6,0.6S23.9,84.5,23.6,84.5z M278,426.1
	c-1.1,0.2-2.4,0-2.9-0.5l-0.9-0.9v-5.9v-5.9l3.2,3.8l3.2,3.8l-0.3,2.5l-0.3,2.5L278,426.1z M140.7,418c-0.6,0-1.5-0.7-2-1.5
	l-0.9-1.5l2.4-1.7c1.3-0.9,2.5-1.6,2.7-1.4c0.2,0.2,0,1.6-0.4,3.2l-0.7,2.8h-1.1V418z M143.4,407.7h-1.7l0.9-0.9l0.9-0.9l0.9,0.9
	l0.9,0.9H143.4z M136.9,400c-0.6,0-1.3-0.4-1.6-1c-0.3-0.5-0.9-2.5-1.4-4.5l-0.8-3.5h2.5h2.5l2,2c1.1,1.1,2,2.8,2,3.7v1.7l-2,0.8
	C138.9,399.7,137.5,400,136.9,400z M83.3,329.1l-0.9,1.6l-0.9-0.9l-0.9-0.9v-7.6v-7.6l1.4-2.5l1.4-2.5l1.4,0.8l5.4,0.8l-4.9,8.5
	C88.6,324.6,83.8,328.2,83.3,329.1z M189,236.3c-0.3,0.3-2.1-0.6-4-2.1l-3.4-2.7v-1.8v-1.8h1.2c0.7,0,2.5,1.8,4,3.9
	S189.3,236,189,236.3z M99.9,225.4c-1,0-2.2-0.6-2.7-1.4l-0.8-1.4l0.7-0.7l0.7-0.7l2,0.8l2,0.8v1.3v1.3L99.9,225.4L99.9,225.4z
	 M211.1,224.1c-0.7,0-1.3-0.6-1.3-1.3c0-0.7,0.6-1.3,1.3-1.3c0.7,0,1.3,0.6,1.3,1.3C212.4,223.5,211.8,224.1,211.1,224.1z
	 M54.2,211.9l-1.3,0.8v-2c0-1.1,0.3-2,0.6-2s0.9,0.5,1.3,1.2l0.7,1.2L54.2,211.9z M0.7,106.1l0.5-3.5l3.5-7l2,4L0.7,106.1z
	 M5.7,82.1l-3,4l2.5,8v-6.5l2-3L5.7,82.1z M27.2,162.6l13.5,14l5-1h-0.5l-1.5-4l-8-6.5l-3.5-3.5L27.2,162.6z M27.2,85.6l-6-3l3.5-5
	l5.5,4.5L27.2,85.6z M6.7,64.1l1-4.5l-4.5,3.5L6.7,64.1z M51.7,0.6c-5,6-3,8.5-3,8.5l6-7L51.7,0.6z M93.2,233.1l5.5,0.5l2-5.5
	l-8,0.5L93.2,233.1z M660.7,333.6l1-10l7,2h-10L660.7,333.6z M39.7,125.6l6,12l4-8L39.7,125.6z M310.7,14.6l-1,6l5-1L310.7,14.6z
	 M64.7,204.6l-7,1l3,10L64.7,204.6z"/>
</svg>
