<?xml version="1.0" encoding="utf-8"?>
<!-- Generator: Adobe Illustrator 18.0.0, SVG Export Plug-In . SVG Version: 6.00 Build 0)  -->
<!DOCTYPE svg PUBLIC "-//W3C//DTD SVG 1.1//EN" "http://www.w3.org/Graphics/SVG/1.1/DTD/svg11.dtd" [
<!ENTITY ns_extend "http://ns.adobe.com/Extensibility/1.0/">
<!ENTITY ns_ai "http://ns.adobe.com/AdobeIllustrator/10.0/">
<!ENTITY ns_graphs "http://ns.adobe.com/Graphs/1.0/">
<!ENTITY ns_vars "http://ns.adobe.com/Variables/1.0/">
<!ENTITY ns_imrep "http://ns.adobe.com/ImageReplacement/1.0/">
<!ENTITY ns_sfw "http://ns.adobe.com/SaveForWeb/1.0/">
<!ENTITY ns_custom "http://ns.adobe.com/GenericCustomNamespace/1.0/">
<!ENTITY ns_adobe_xpath "http://ns.adobe.com/XPath/1.0/">
]>
<svg xmlns:x="&ns_extend;" xmlns:i="&ns_ai;" xmlns:graph="&ns_graphs;" xmlns:rdf="http://www.w3.org/1999/02/22-rdf-syntax-ns#" xmlns:dc="http://purl.org/dc/elements/1.1/" xmlns:cc="http://web.resource.org/cc/" xmlns:sodipodi="http://sodipodi.sourceforge.net/DTD/sodipodi-0.dtd" xmlns:inkscape="http://www.inkscape.org/namespaces/inkscape" xmlns:svg="http://www.w3.org/2000/svg" xmlns="http://www.w3.org/2000/svg" xmlns:xlink="http://www.w3.org/1999/xlink" version="1.1" id="svg2913" sodipodi:docname="Antarctica blank.svg" inkscape:version="0.45.1" inkscape:export-ydpi="72.000000" inkscape:export-filename="D:\Wikipédia\Guatemala carte.svg" sodipodi:version="0.32" inkscape:export-xdpi="72.000000" sodipodi:docbase="G:\Inkscape" inkscape:output_extension="org.inkscape.output.svg.inkscape" x="0px" y="0px" viewBox="79.3 118.4 668.9 546" enable-background="new 79.3 118.4 668.9 546" xml:space="preserve">
<sodipodi:namedview width="804px" height="804px" inkscape:window-width="1600" inkscape:pageopacity="0.0" inkscape:current-layer="svg2913" inkscape:pageshadow="2" inkscape:document-units="px" inkscape:window-y="22" inkscape:guide-bbox="true" inkscape:window-x="0" inkscape:window-height="1149" bordercolor="#666666" inkscape:zoom="1" inkscape:cx="606.83958" borderopacity="1.0" pagecolor="#ffffff" inkscape:cy="1006.4754" showguides="true" id="base">
	</sodipodi:namedview>
<path id="Antarctique" fill="#F44545" stroke="" d="M113.9,286.4c-0.3,0-1.9-1.1-3.6-2.5l-3-2.5l2.2,0l2.2,0l1.4,2.6  C113.9,285.3,114.2,286.4,113.9,286.4z M508.5,663.9l-5.1,0l-2.7-1.6c-1.5-0.9-4.3-2.7-6.3-4.1l-3.6-2.5l-15.4,0.3l-15.4,0.3  l-2.5-2.2c-1.4-1.2-4.9-3.4-7.8-4.8l-5.3-2.6l0.6-1.9c0.3-1.1,0.5-4.1,0.3-6.8l-0.2-4.9l1.3-2.4l1.3-2.4h1.9h1.9l4-8.4l4-8.4  l0.3-3.7l0.3-3.7l3-3.2l3-3.2l-1.7-3.5c-0.9-1.9-3-7.7-4.6-12.7l-3-9.2l-6.6-8.4l-6.6-8.4l2.7-4.3c1.5-2.4,3.6-5.1,4.7-6l2-1.6  l-0.9-5.1l-0.9-5.1l-2.4-3.9c-1.3-2.2-2.4-4.8-2.4-5.9c0-1.1-1.1-4-2.5-6.6s-5-7.2-8-10.3c-3.1-3.1-8.5-8.8-12.1-12.7l-6.6-6.9  l-10.1-5.1l-10.1-5.1l-6.1-6.3c-3.3-3.5-7.9-7.7-10.2-9.3l-4.2-3.1h-3.7h-3.7l-0.8,2.2l-0.8,2.2l2.4,1.4c1.3,0.7,4.1,3,6.1,4.9  l3.7,3.6l-1.6,1.9l-1.6,1.9l1.6,3.9l1.6,3.9l-0.7,0.7l-0.7,0.7l-2.8-1.5l-2.8-1.5l-1.8,1.5l-1.8,1.5v4.3v4.3h-1  c-0.5,0-1.7-1.2-2.6-2.6l-1.7-2.6l-3.5,0.4l-3.5,0.4l-3,5.8l-3,5.8l0.8,5l0.8,5l-2.3-1c-1.3-0.5-3.4-1-4.9-1.1l-2.6-0.1l-0.4,3.5  l-0.4,3.5h-2.2h-2.2l-3.4,3.6l-3.4,3.6l0.8,4.7l0.8,4.7l1.8,1.5l1.8,1.5v3.5v3.5l-1.9,0.7l-1.9,0.7v2v2l3.2,1.2l3.2,1.2v1.8  c0,1-0.4,2.8-0.8,3.9l-0.8,2h-4.1h-4.1l-4-4.2c-2.2-2.3-4.6-5.5-5.5-7.1l-1.5-2.9l-4.2,0.3L309,544l-1.4-0.9l-1.4-0.9l-3.4,2.6  l-3.4,2.6v1.8v1.8l-2.9,3l-2.9,3l-5.1-0.2c-2.8-0.1-7-0.9-9.3-1.7s-6.1-2.1-8.4-2.9l-4.2-1.5l-3.9,0.1c-2.1,0.1-5.2-0.1-6.8-0.5  l-2.9-0.6v-2.7v-2.7l-4.5-5.3c-2.5-2.9-5.2-6-6.1-6.9c-0.9-0.9-3-2.9-4.6-4.5c-1.7-1.6-7.1-8.1-12.1-14.4c-5-6.3-9.8-12-10.8-12.5  l-1.7-1V497v-2.9l-1.6-2.2l-1.6-2.2l-2.5-0.5c-1.4-0.3-2.8-0.5-3.1-0.6c-0.3-0.1,0.8-1.5,2.4-3.2l2.9-3.1l-0.5-2.4l-0.5-2.4  l-3.6,0.3l-3.6,0.3l0.4-2.2l0.4-2.2l4.8-0.4l4.8-0.4v-5.6v-5.6l-3.9-7.4l-3.9-7.4l0.8-4.3l0.8-4.3h-1.2c-0.6,0-1.9,0.7-2.8,1.6  l-1.6,1.6l-1.3-2.2l-1.3-2.2h-2.5h-2.5v1.8v1.8l-3.6,2.6l-1.6,6.1l-1.6-4.4l-1.6-4.4h-1.8h-1.8l-0.8,2.6c-0.5,1.4-0.7,4.5-0.5,6.7  l0.4,4.2l-1,1.6c-0.5-0.6-1.4,1.6-1.9,1.6H176l-0.2-6.7c-0.1-3.7-0.2-9-0.2-11.8c0-2.8,0-7.1-0.1-9.6c-0.1-2.5-0.3-8.9-0.5-14.3  l-0.4-9.8l-2.1-2.3l-2.1-2.3l2.5-3l2.5-3v-2.4v-2.4l3.8-11.7l5.8-8.2l-0.7-1.7c-0.4-0.9-2.4-2.7-4.5-3.9l-3.8-2.2V360v-1.8l3.2-0.8  l3.2-0.8v-1.2c0-0.7,1.2-2.3,2.6-3.6l2.6-2.4L187,332l-0.5-17.3l-1.4-2.6c-0.8-1.4-3.2-4.1-5.4-5.9l-4-3.3h-5.4l-3.9-1l-1.3-1.3  l-1.3-1.3l-9.7-1.1c-5.4-0.6-10.4-1.5-11.2-2l-1.4-0.9v-3.5v-3.5l-1.5-1.5l-1.5-1.5h-2.9h-2.9l-0.7-1.2c-0.4-0.6-3.4-2.5-6.7-4  l-6-2.9l-2.3,1.5l-2.3,1.5l-0.8-1.3l-0.8-1.3l1.4-1.7l1.4-1.7l-3.2-2.1l-3.2-2.1l2-1.5c0-0.8-1.2-2.8-2.7-4.3  c-1.5-1.6-2.8-3.6-2.9-4.6c-0.1-1-1-3.6-2-5.9l-1.7-4.1l-2.6-0.8l-2.6-0.8l0.6-2.5l3.1-2l-1.8-8c-1-4.4,1.8-8.4,1.3-9.4l-0.9-1.9  l2.4-9.3c0-5.1,0-9.3,0.2-9.3c0.1,0,1.6,2.5,3.3,5.5l3.1,5.5l-1.2,2.7l-1.2,2.7l-0.4,6.1c1.1,3.3-0.9,5.1-1.9,7.9v2.3l3.7,3.2  c2,1.8,2.2,3.5,3.6,4.5l2.4,1.8l-1.9,3.5l-1.9,3.5l3.2,2.8l1.2,2.8l2.8,5.7l2.8,5.7l4.5,2.4l4.5,2.4l4.9,0.2l4.9,0.2l1.1-2.6  l1.1-2.6l8.1,0.2l8.1,0.2l4.1,2l4.1,2l4.6,1.8c3.3,0.5,7.6,1.5,9.5,2.3l3.5,1.4l0.6,2.3l0.6,2.3l3.2-0.8l3.2-0.8l1.4,2.6l1.4,2.6  l-0.8,2l-0.8,2h1.2h1.2l1.5-3.2l1.5-3.2h1.3h1.3v3.1v3.1l2,0.8l2,0.8l1.4-0.8l1.4-0.8l1.4,1.9c0.8,1,2.7,2.6,4.3,3.4l2.9,1.5v3.8  v3.8l2.1,3.2l2.1,3.2h2.3h2.3l0.8,4c0.4,2.2,0.8,7.6,0.8,12v8l2.8,1.8l2.8,1.8l-2.3,5.9l-2.3,5.9l-4.9,1.9c-2.7,1.1-5.2,2.5-5.7,3.2  l-0.8,1.2l2.2,2.2l2.2,2.2l4.6-0.8c2.5-0.4,6.8-1.4,9.5-2.1l4.9-1.4l1.2-3.1l1.2-3.1h1.9h1.9l0.7,2.3l0.7,2.3l-2.3,4.4  c-1.3,2.4-3.3,6-4.6,7.9l-2.3,3.5l0.8,1.3c0.5,0.7,1.6,1.3,2.4,1.3h1.6l3.7-3.8l3.7-3.8h2.3h2.3l0,2.9l0,2.9l-4.5,3.6l-4.5,3.6v1.9  v1.9h2.6h2.6l6.7-3.4c3.7-1.9,7-3.6,7.3-3.9c0.3-0.2-0.1-1.1-1-2c-0.8-0.8-1.5-2.5-1.5-3.7V371l1.8-1.5l1.8-1.5l2.1,0.8l2.1,0.8v3.7  v3.7h1.9h1.9l1.4-2.6l1.4-2.6h6.9h6.9l3.5,1.3l3.5,1.3l1.4-1.4l1.4-1.4l-4.3-3.6l-4.3-3.6l0.5-2.3l0.5-2.3l3.5-1.2l3.5-1.2l5.1,1.7  l5.1,1.7l5.5-1.4l5.5-1.4l2.1,1.9l2.1,1.9h2.2h2.2l0.7-1.7l0.7-1.7l-4.5-6.7l-4.5-6.7l-0.8-4.4l-0.8-4.4l0.8-3.2l0.8-3.2h4.5h4.5  v-3.5c0-1.9-0.6-5.5-1.3-7.9l-1.3-4.4l1.8-6.8l1.8-6.8l2.7-3.4l2.7-3.4v-4.2V285l-2.7-4.6l-2.7-4.6h-1.2c-0.7,0-4.1,0.9-7.7,2.1  l-6.5,2.1l-2.5-2.5l-2.5-2.5l-0.1-4.4l-0.1-4.4l2-8.3c1.1-4.6,2.6-10.1,3.3-12.2c0.7-2.1,2-6.1,2.9-9l1.6-5.1l3.9-5.4l3.9-5.4  l4.3-2.5c2.4-1.4,4.5-3.3,4.8-4.2c0.3-0.9,0.9-3.8,1.3-6.4l0.8-4.8l2-1.6c1.1-0.9,3.7-3.2,5.7-5.3l3.7-3.7v-1.8v-1.8h-2.3  c-1.3,0-3,0.6-3.7,1.4l-1.4,1.4l-1.4-0.9l-1.4-0.9v-3.1v-3.1l3.9-2l3.9-2l0-2.2l0-2.2l3.8-5.6c2.1-3.1,3.8-6.3,3.8-7  c0-0.8-0.5-2.2-1.1-3.1l-1.1-1.7l2.7-5c1.5-2.7,3.1-5,3.7-5c0.5,0,1.8,1.8,3,3.9l2,3.9l2.1-0.4l2.1-0.4l0.8-3.8  c0.4-2.1,1.5-5.1,2.3-6.7c0.9-1.6,2-2.9,2.6-2.9h1.1l-0.6,3.2l-0.6,3.2l1.8,0.7l1.8,0.7l6.2-1.2l6.2-1.2l3.4,1.8  c1.9,1,4.7,1.8,6.3,1.8l2.8,0l1.4-2.6l1.4-2.6l5.4-2.7l5.4-2.7l8.4-0.6l8.4-0.6l1.9-1.6l1.9-1.6l5.6,0.2l5.6,0.2l3.2,4.1l3.2,4.1  h1.7c0.9,0,2.3-0.8,3.2-1.8l1.5-1.8l3.5-0.7l3.5-0.7l3.7,1.9l3.7,1.9l6.8-0.8l6.8-0.8l4.4,4.3c2.4,2.4,6.6,6,9.4,8.1l5.1,3.7l11,1.8  c6.1,1,12.7,1.8,14.7,1.7l3.7-0.1l3.9,2l3.9,2l7.2-0.5l7.2-0.5l4.1-3.1l4.1-3.1l0.8,0.8l0.8,0.8l0.2,10l0.2,10l3.2,4.3l3.2,4.3  l3.7-0.7l3.7-0.7l3.9-3.3l3.9-3.3l2.7,0.7c1.5,0.4,5.9,1.1,9.8,1.5l7.1,0.9l1.6,1.2c0.9,0.7,3.8,1.8,6.4,2.5  c2.7,0.7,6.6,1.4,8.7,1.6l3.9,0.3l0.4,3.1c0.2,1.7,1,3.8,1.8,4.7l1.3,1.6h2.9h2.9l0.7-2.7l0.7-2.7l1.5,0.9l1.5,0.9l-0.6,2.2  l-0.6,2.2l1.2,2.1l1.2,2.1h1.8h1.8l2-3.8c1.1-2.1,2.5-3.8,3.1-3.8c0.6,0,3,0.7,5.4,1.5l4.4,1.5l3.7,3.3c2,1.8,4.5,5,5.6,7l1.9,3.7  l-0.9,6.3l-0.9,6.3h-3.2h-3.2l0.9,3.5c0.5,1.9-1,3.3-0.9,6.1l-0.3,8.6l2.5,3.1c0.8,1.4,3.4,3.7,3.9,6.8l0.9,5.8l1.9,3l1.9,3  l-0.4,16.3c2,7.6,7.9,11.9,8.4,12.6l0.8,1.3l-2.1,1.7l-2.1,1.7l-9.8,0.2c-5.4,0.1-11.8,0.4-14.3,0.6l-4.5,0.4l-0.5,2.5l-0.5,2.5  l-3.1,2.4l-3.1,2.4v3.1v3.1h-6.4h-6.4v1.2c0,0.7,1.2,1.9,2.7,2.7l2.7,1.5l12.9,0.3l12.9,0.3l2.4,2.9l2.4,2.9v2.4v2.4h1.2  c0.7,0,3.9,2.3,7.2,5.1l5.9,5.1h3.2h3.2l3.8,1.9l3.8,1.9l2.5,4.9c1.4,2.7,3.3,5.6,4.4,6.4c1,0.9,2.4,1.5,3,1.4  c0.6-0.1,1.9-0.1,2.8,0l1.7,0.2l-0.8,3.8l-0.8,3.8l2.6,3.3l2.6,3.3l-0.7,1.9l-0.7,1.9l3.4,7.2l3.4,7.2l-0.8,4.8l-0.8,4.8l2.1,6.2  l2.1,6.2l-0.7,3.9l-0.7,3.9l1.1,5.7l1.1,5.7l-1.6,2.3l-1.6,2.3l0.6,6.7c0.3,3.7,1.1,7.7,1.8,8.9l1.2,2.2h1.8c1,0,2.2,0.6,2.7,1.4  l0.9,1.4l-3.6,2.8l-3.6,2.8l1.5,2.7l1.5,2.7v4.4v4.4l-11.4,4.2c-4.6,6.4-8.2,15.7-8.6,15.2c-4.6-6,0,3.9-1.2,5l-2,3l1.3,2.4  c0.7,1.3,1.3,3.5,1.3,4.9v2.6l2.1,2.1l2.1,2.1l0.6,6l0.6,6l-1.8,1.5c-1,0.8-4.1,2-6.9,2.6l-5,1l-0.5,2.5c-0.3,1.4-1.1,3.2-1.8,4.1  l-1.3,1.6h-2.8h-2.8l-5.5,4.7l-5.5,4.7l-2.4,5.5l-2.4,5.5l-0.9,8.1l-0.9,8.1l-1.8,2.8l-1.8,2.8l0.3,2.8l0.3,2.8l-3.2,0.9  c-1.8,0.5-5.4,1-8,1.1l-4.8,0.1l-1.9,3.6l-1.9,3.6l1.9,3.6c1,2,1.9,4.5,1.9,5.7v2.2l-4.8,6.3c-2.7,3.5-6.8,8.5-9.2,11.1l-4.4,4.8  h-2.9h-2.9l-0.8,1.3c-0.4,0.7-4.1,2.7-8.1,4.5c-4,1.8-10,4.7-13.3,6.4c-3.3,1.7-6.7,3.1-7.6,3.1s-2.6,0.8-3.7,1.7  c-1.1,0.9-4.3,2.4-7.2,3.2l-5.1,1.5l-1.5-2l-1.5-2l-7.5,0.3l-7.5,0.3l-2.1-0.9l-2.1-0.9l-5.5,2.8l-5.5,2.8l-3-1.6l-3-1.6l-4,1.6  l-4,1.6l-1.8,2.5l-1.8,2.5l-2.6-1.4c-1.4-0.8-3.7-1.4-5.1-1.4s-4.2,0.9-6.2,1.9l-3.7,1.9L508.5,663.9z M161.2,334.3  c-1.1,0.4-2.1,0.6-2.2,0.3c-0.1-0.3-0.3-2.6-0.4-5.1l-0.3-4.7l-2.2-2.2l-2.2-2.2l0.4-3.4l0.4-3.4l-4.2-0.4l-4.2-0.4v-2.5v-2.5h-1.1  c-0.6,0-1.9,0.9-2.8,2.1l-1.7,2.1l-5.1-0.7l-5.1-0.7l-2-2l-2-2l1.5-1.8l1.5-1.8l12.5,0.5l12.5,0.5l7.3,2l7.3,2l4,3.9l4,3.9v3.1  c0,1.7-0.6,4.2-1.3,5.6s-1.9,2.5-2.6,2.5H172l0.4-3.5l0.4-3.5l-3.6-0.4l-3.6-0.4l-1.7,1.4l-1.7,1.4l-0.6,3.3l-0.6,3.3l1.8,0.7  l1.8,0.7v1.8c0,1-0.2,1.8-0.5,1.8S162.4,333.9,161.2,334.3z M304.5,326.3h-2.2l-2-7.2l-4.5-7.7l-6.3-6.2l-6.3-6.2l-1.4-3.9l-1.4-3.9  l3.1-2l3.1-2l3,0.4l3,0.4l0.4,2.9l0.4,2.9h2.4h2.4l0.8,1.4c0.5,0.7,2.2,1.9,3.9,2.5l3.1,1.2l2.1,4.4l2.1,4.4l-0.4,9.6l-2.9,9.1  H304.5z M111.2,209.3h-1.7l0.9-0.9l0.9-0.9l0.9,0.9l0.9,0.9H111.2z M439.1,567.8l-2.5,0.1l0.8-0.8l0.8-0.8l1.7,0.7l1.7,0.7  L439.1,567.8z M102.9,202.9c-0.4,0-0.6-0.3-0.6-0.6s0.3-0.6,0.6-0.6s0.6,0.3,0.6,0.6S103.2,202.9,102.9,202.9z M357.3,544.5  c-1.1,0.2-2.4,0-2.9-0.5l-0.9-0.9l0-5.9l0-5.9l3.2,3.8l3.2,3.8l-0.3,2.5l-0.3,2.5L357.3,544.5z M220,536.4c-0.6,0-1.5-0.7-2-1.5  l-0.9-1.5l2.4-1.7c1.3-0.9,2.5-1.6,2.7-1.4c0.2,0.2,0,1.6-0.4,3.2l-0.7,2.8H220z M222.7,526.1H221l0.9-0.9l0.9-0.9l0.9,0.9l0.9,0.9  H222.7z M216.2,518.4c-0.6,0-1.3-0.4-1.6-1c-0.3-0.5-0.9-2.5-1.4-4.5l-0.8-3.5h2.5h2.5l2,2c1.1,1.1,2,2.8,2,3.7v1.7l-2,0.8  C218.2,518.1,216.8,518.4,216.2,518.4z M162.6,447.5l-0.9,1.6l-0.9-0.9l-0.9-0.9v-7.6v-7.6l1.4-2.5l1.4-2.5l1.4,0.8l5.4,0.8  l-4.9,8.5C167.9,443,163.1,446.6,162.6,447.5z M268.3,354.7c-0.3,0.3-2.1-0.6-4-2.1l-3.4-2.7v-1.8v-1.8h1.2c0.7,0,2.5,1.8,4,3.9  S268.6,354.4,268.3,354.7z M179.2,343.8c-1,0-2.2-0.6-2.7-1.4l-0.8-1.4l0.7-0.7l0.7-0.7l2,0.8l2,0.8v1.3v1.3H179.2z M290.4,342.5  c-0.7,0-1.3-0.6-1.3-1.3c0-0.7,0.6-1.3,1.3-1.3c0.7,0,1.3,0.6,1.3,1.3C291.7,341.9,291.1,342.5,290.4,342.5z M133.5,330.3l-1.3,0.8  v-2c0-1.1,0.3-2,0.6-2c0.3,0,0.9,0.5,1.3,1.2l0.7,1.2L133.5,330.3z M80,224.5l0.5-3.5l3.5-7l2,4L80,224.5z M85,200.5l-3,4l2.5,8V206  l2-3L85,200.5z M106.5,281l13.5,14l5-1h-0.5l-1.5-4l-8-6.5l-3.5-3.5L106.5,281z M106.5,204l-6-3l3.5-5l5.5,4.5L106.5,204z M86,182.5  l1-4.5l-4.5,3.5L86,182.5z M131,119c-5,6-3,8.5-3,8.5l6-7L131,119z M172.5,351.5l5.5,0.5l2-5.5l-8,0.5L172.5,351.5z M740,452l1-10  l7,2h-10L740,452z M119,244l6,12l4-8L119,244z M390,133l-1,6l5-1L390,133z M144,323l-7,1l3,10L144,323z"/>
</svg>
